<?xml version="1.0" standalone="no"?>
<!DOCTYPE svg PUBLIC "-//W3C//DTD SVG 20010904//EN"
 "http://www.w3.org/TR/2001/REC-SVG-20010904/DTD/svg10.dtd">
<svg version="1.0" xmlns="http://www.w3.org/2000/svg"
 width="691.000000pt" height="691.000000pt" viewBox="0 0 691.000000 691.000000"
 preserveAspectRatio="xMidYMid meet">
<metadata>
Created by potrace 1.14, written by Peter Selinger 2001-2017
</metadata>
<g transform="translate(0.000000,691.000000) scale(0.100000,-0.100000)"
fill="#000000" stroke="none">
<path d="M3239 6906 c-2 -2 -40 -7 -84 -10 -78 -6 -115 -10 -183 -21 -18 -3
-52 -7 -75 -10 -23 -3 -91 -17 -152 -31 -60 -13 -119 -26 -130 -28 -59 -11
-282 -79 -332 -102 -17 -8 -33 -14 -36 -14 -3 0 -18 -5 -34 -12 -33 -13 -30
-12 -65 -22 -16 -5 -28 -11 -28 -15 0 -4 -6 -8 -13 -8 -19 0 -259 -117 -359
-175 -49 -29 -97 -57 -107 -63 -32 -19 -156 -100 -168 -110 -6 -5 -28 -21 -48
-35 -20 -14 -47 -34 -60 -45 -14 -11 -43 -33 -65 -49 -22 -17 -40 -33 -40 -38
0 -4 -4 -8 -9 -8 -12 0 -66 -46 -208 -181 -65 -62 -199 -209 -267 -294 -31
-38 -64 -79 -74 -91 -9 -11 -39 -54 -67 -95 -27 -40 -58 -82 -67 -93 -10 -11
-18 -26 -18 -33 0 -7 -5 -13 -11 -13 -5 0 -8 -4 -5 -9 4 -5 3 -11 -2 -13 -10
-4 -72 -105 -72 -117 0 -5 -4 -11 -9 -13 -12 -5 -150 -288 -199 -408 -84 -209
-182 -559 -207 -735 -3 -22 -7 -53 -10 -70 -23 -150 -30 -257 -30 -485 0 -194
9 -390 20 -423 2 -6 6 -34 9 -62 6 -54 11 -83 26 -160 17 -83 18 -88 30 -140
6 -27 13 -57 15 -65 15 -69 80 -282 95 -315 5 -11 21 -50 34 -88 14 -37 32
-83 41 -102 8 -19 22 -52 31 -72 9 -21 37 -78 62 -128 25 -49 50 -100 56 -112
6 -13 14 -23 19 -23 4 0 7 -5 7 -11 0 -15 130 -230 150 -249 3 -3 21 -27 39
-55 19 -27 40 -53 45 -57 7 -5 7 -8 1 -8 -6 0 -6 -3 0 -8 6 -4 45 -50 87 -102
42 -52 112 -133 157 -180 45 -47 81 -88 81 -92 0 -3 4 -8 9 -10 5 -2 38 -30
73 -63 81 -76 175 -155 268 -228 42 -33 249 -177 254 -177 1 0 51 -29 111 -65
60 -36 115 -65 122 -65 7 0 13 -4 13 -10 0 -5 9 -10 20 -10 11 0 20 -4 20 -10
0 -5 4 -10 9 -10 5 0 42 -15 83 -34 40 -19 102 -46 138 -61 36 -14 74 -30 85
-35 29 -14 286 -99 315 -104 14 -2 26 -5 28 -7 3 -2 8 -3 47 -13 17 -4 48 -12
70 -17 44 -11 77 -18 115 -24 14 -2 34 -6 45 -8 11 -3 40 -8 65 -12 25 -3 59
-9 75 -11 17 -3 46 -7 65 -9 19 -2 69 -7 110 -12 142 -15 631 -7 731 12 13 3
41 7 64 10 81 12 157 25 175 30 8 2 31 7 50 10 142 24 435 116 630 198 14 6
27 11 30 12 3 0 19 9 37 18 18 9 38 17 44 17 7 0 20 7 30 16 9 8 23 17 31 18
13 2 44 18 138 68 74 40 95 52 102 63 4 6 8 6 8 2 0 -4 15 3 33 17 19 15 37
26 40 26 9 0 258 175 285 200 11 11 23 20 26 20 14 0 252 219 351 322 109 115
155 168 251 295 41 54 77 103 82 108 4 6 23 35 42 65 19 30 37 57 40 60 15 12
146 250 200 363 84 175 157 363 195 502 8 28 21 75 29 105 19 65 65 278 71
326 2 19 7 49 10 66 6 38 11 72 22 183 9 91 9 542 -1 625 -10 93 -16 144 -21
170 -2 14 -6 47 -10 74 -3 27 -8 53 -10 57 -3 4 -7 24 -10 45 -15 123 -113
449 -193 649 -66 166 -248 513 -274 523 -4 2 -8 8 -8 13 0 18 -155 240 -172
247 -4 2 -8 8 -8 13 0 34 -393 446 -524 549 -55 43 -76 60 -121 98 -38 32
-260 179 -345 229 -142 83 -449 231 -515 247 -5 2 -17 6 -25 9 -23 10 -230 78
-249 82 -9 2 -61 16 -116 30 -94 25 -115 30 -175 40 -134 24 -163 29 -265 41
-33 3 -69 9 -80 11 -24 5 -531 13 -536 9z"/>
</g>
</svg>
